<svg id="Layer_1" enable-background="new 0 0 256 256" height="512" viewBox="0 0 256 256" width="512" xmlns="http://www.w3.org/2000/svg"><path d="m134.829 68.823 24.536-5.811-11.444-11.444c-2.453-2.453-6.429-2.453-8.882 0l-6.291 6.291c-2.453 2.453-2.453 6.429 0 8.882z" fill="#a4c9ff"/><path d="m182.704 57.485 24.536-5.811-14.908-14.908c-2.453-2.453-6.429-2.453-8.882 0l-6.291 6.291c-2.453 2.453-2.453 6.429 0 8.882z" fill="#a4c9ff"/><path d="m57.485 182.704-5.546-5.546c-2.453-2.453-6.429-2.453-8.882 0l-6.291 6.291c-2.453 2.453-2.453 6.429 0 8.882l14.908 14.908z" fill="#a4c9ff"/><path d="m63.012 159.365 5.811-24.536-2.081-2.081c-2.453-2.453-6.429-2.453-8.882 0l-6.291 6.291c-2.453 2.453-2.453 6.429 0 8.882z" fill="#a4c9ff"/><path d="m21.69 11.387c-2.897-.933-6.096-.148-8.274 2.029-2.177 2.177-2.962 5.377-2.029 8.274 8.078 25.091 22.218 47.727 41.178 65.923l112.104 107.588c12.071 12.071 28.015 19.218 43.927 19.594 3.535.083 6.281-2.663 6.198-6.198-.376-15.913-7.523-31.856-19.594-43.927l-107.587-112.105c-18.197-18.961-40.832-33.1-65.923-41.178z" fill="#e0ebfc"/><path d="m42.157 30.798c-2.885.251-5.632 1.544-7.723 3.636s-3.384 4.838-3.636 7.723c-.56 6.424 1.658 12.643 6.09 17.075l4.094 4.094 1.205-1.205c-1.248-3.117-1.771-6.547-1.466-10.04.251-2.885 1.544-5.631 3.636-7.723 2.091-2.091 4.838-3.384 7.723-3.636 3.493-.304 6.923.219 10.04 1.466l1.205-1.205-4.094-4.094c-4.431-4.433-10.65-6.651-17.074-6.091z" fill="#4671c6"/><path d="m165.643 196.131-1.844 1.844-6.263 17.687c-.561 1.584-.161 3.349 1.026 4.537l10.117 10.117c1.746 1.746 4.593 1.694 6.274-.115l16.975-18.264c-9.595-3.057-18.663-8.472-26.285-15.806z" fill="#e0ebfc"/><path d="m230.315 168.679-10.117-10.117c-1.188-1.188-2.953-1.587-4.537-1.026l-17.687 6.263-1.844 1.844c7.335 7.622 12.749 16.691 15.805 26.286l18.264-16.975c1.81-1.682 1.862-4.529.116-6.275z" fill="#e0ebfc"/><g fill="#3762cc"><path d="m208.756 216.796c-.069 0-.138-.001-.206-.002-16.348-.386-32.856-7.741-45.294-20.179l-112.076-107.559c-19.128-18.358-33.547-41.441-41.697-66.753-1.169-3.631-.204-7.578 2.519-10.301s6.669-3.688 10.301-2.519c25.313 8.15 48.396 22.569 66.753 41.697l107.588 112.104c12.408 12.409 19.764 28.918 20.149 45.265.054 2.262-.773 4.364-2.327 5.918-1.506 1.507-3.528 2.329-5.71 2.329zm-189.547-203.799c-1.609 0-3.186.64-4.379 1.833-1.657 1.657-2.247 4.051-1.54 6.247 7.948 24.684 22.008 47.193 40.66 65.093l112.105 107.587c11.747 11.747 27.26 18.675 42.589 19.037 1.17.032 2.223-.384 2.995-1.157.773-.773 1.184-1.836 1.157-2.995-.362-15.329-7.291-30.841-19.009-42.56l-107.617-112.132c-17.9-18.652-40.409-32.712-65.093-40.659-.614-.198-1.243-.294-1.868-.294z"/><path d="m171.756 233.592c-1.696 0-3.288-.659-4.491-1.862l-10.117-10.117c-1.723-1.723-2.311-4.321-1.498-6.618l6.264-17.688c.1-.281.261-.536.472-.747l1.844-1.844c.771-.771 2.017-.781 2.801-.027 7.334 7.057 16.153 12.361 25.507 15.34.652.208 1.153.735 1.327 1.398.174.662-.003 1.368-.47 1.87l-16.976 18.264c-1.187 1.277-2.8 1.997-4.542 2.029-.041.001-.081.002-.121.002zm-6.223-34.523-6.112 17.26c-.302.852-.084 1.816.555 2.456l10.117 10.117c.456.457 1.05.7 1.71.69.646-.012 1.245-.279 1.686-.752l14.885-16.015c-8.238-3.064-15.998-7.82-22.685-13.911z"/><path d="m211.937 193.928c-.17 0-.34-.021-.508-.065-.662-.174-1.189-.675-1.397-1.328-2.98-9.354-8.285-18.173-15.342-25.505-.755-.785-.743-2.03.027-2.801l1.844-1.844c.21-.211.466-.372.746-.471l17.688-6.263c2.299-.815 4.896-.226 6.618 1.498l10.117 10.117c1.232 1.232 1.894 2.87 1.861 4.613-.032 1.742-.753 3.355-2.029 4.541l-18.264 16.975c-.374.346-.862.533-1.361.533zm-13.024-28.239c6.09 6.685 10.848 14.446 13.911 22.684l16.015-14.884c.474-.44.741-1.038.753-1.685.012-.646-.233-1.254-.69-1.711l-10.117-10.117c-.64-.64-1.603-.855-2.454-.555l-17.261 6.112z"/><path d="m134.829 70.823c-.524 0-1.035-.207-1.414-.586l-2.081-2.082c-1.564-1.563-2.426-3.643-2.426-5.855s.861-4.292 2.426-5.855l6.291-6.291c1.564-1.564 3.644-2.425 5.855-2.425s4.291.861 5.854 2.425l11.444 11.444c.513.513.708 1.262.51 1.96-.197.697-.758 1.233-1.463 1.4l-24.535 5.812c-.153.036-.308.053-.461.053zm8.651-19.094c-1.144 0-2.219.445-3.027 1.254l-6.291 6.291c-.809.809-1.254 1.884-1.254 3.027s.445 2.218 1.254 3.026l1.292 1.292 19.963-4.728-8.91-8.91c-.809-.807-1.883-1.252-3.027-1.252z"/><path d="m182.704 59.484c-.524 0-1.035-.207-1.414-.586l-5.546-5.546c-1.564-1.563-2.426-3.643-2.426-5.855s.861-4.292 2.426-5.855l6.291-6.291c1.564-1.564 3.644-2.425 5.855-2.425s4.291.861 5.854 2.425l14.908 14.909c.513.513.708 1.263.51 1.96-.197.697-.758 1.233-1.463 1.4l-24.535 5.811c-.152.036-.307.053-.46.053zm5.187-22.558c-1.144 0-2.219.445-3.027 1.254l-6.291 6.291c-.809.809-1.254 1.884-1.254 3.027s.445 2.218 1.254 3.026l4.757 4.757 19.962-4.728-12.374-12.375c-.81-.807-1.884-1.252-3.027-1.252z"/><path d="m51.674 209.24c-.523 0-1.034-.206-1.414-.586l-14.909-14.909c-1.564-1.564-2.425-3.643-2.425-5.855s.861-4.291 2.425-5.855l6.292-6.292c1.564-1.564 3.643-2.425 5.855-2.425s4.291.861 5.855 2.425l5.546 5.546c.491.49.692 1.2.532 1.875l-5.811 24.536c-.167.706-.703 1.265-1.4 1.463-.18.052-.364.077-.546.077zm-4.176-31.92c-1.096 0-2.192.417-3.027 1.251l-6.292 6.292c-.808.809-1.253 1.883-1.253 3.027s.445 2.218 1.253 3.027l12.375 12.374 4.728-19.962-4.757-4.757c-.835-.835-1.931-1.252-3.027-1.252z"/><path d="m63.012 161.365c-.523 0-1.034-.206-1.414-.586l-11.444-11.443c-3.229-3.229-3.229-8.481 0-11.71l6.292-6.292c3.229-3.229 8.481-3.229 11.71 0l2.082 2.081c.491.491.692 1.2.532 1.875l-5.811 24.536c-.167.706-.703 1.265-1.4 1.463-.181.051-.365.076-.547.076zm-.711-28.454c-1.096 0-2.192.417-3.027 1.251l-6.292 6.292c-1.669 1.669-1.669 4.385 0 6.054l8.91 8.909 4.728-19.962-1.292-1.292c-.835-.835-1.931-1.252-3.027-1.252z"/></g><path d="m74.924 109.071-27.915 117.862c-.502 2.12.13 4.348 1.67 5.888l10.338 10.338c2.889 2.889 7.724 2.294 9.826-1.21l52.816-88.026z" fill="#e0ebfc"/><path d="m63.441 247.001c-2.183 0-4.267-.856-5.837-2.427l-10.338-10.338c-2.046-2.045-2.869-4.948-2.203-7.763l27.914-117.863c.166-.698.692-1.254 1.381-1.458.686-.201 1.433-.022 1.95.476l46.737 44.854c.673.646.81 1.672.33 2.472l-52.816 88.026c-1.321 2.202-3.54 3.645-6.088 3.958-.345.042-.689.063-1.03.063zm12.622-134.064-27.107 114.458c-.345 1.455.081 2.956 1.138 4.013l10.338 10.338c.938.938 2.23 1.381 3.55 1.222 1.317-.163 2.464-.908 3.147-2.046l51.995-86.658z" fill="#3762cc"/><path d="m243.16 59.018-10.338-10.338c-1.54-1.54-3.769-2.172-5.888-1.67l-117.863 27.914 44.853 46.737 88.026-52.816c3.504-2.103 4.099-6.938 1.21-9.827z" fill="#e0ebfc"/><path d="m153.925 123.66c-.531 0-1.056-.211-1.444-.615l-44.853-46.737c-.497-.518-.678-1.262-.476-1.95.203-.688.759-1.215 1.458-1.381l117.863-27.914c2.811-.665 5.717.156 7.764 2.202l10.338 10.339c1.815 1.816 2.677 4.319 2.363 6.867s-1.757 4.767-3.958 6.088l-88.026 52.816c-.321.192-.677.285-1.029.285zm-40.988-47.597 41.326 43.062 86.658-51.995c1.139-.683 1.884-1.83 2.047-3.147.162-1.317-.283-2.611-1.222-3.55l-10.338-10.338c-1.059-1.058-2.56-1.482-4.014-1.138z" fill="#3762cc"/></svg>